<svg version="1.1" xmlns="http://www.w3.org/2000/svg" xmlns:xlink="http://www.w3.org/1999/xlink" x="0px" y="0px" viewBox="0 0 1000 1000" enable-background="new 0 0 1000 1000" xml:space="preserve">
<metadata> Svg Vector Icons : http://www.onlinewebfonts.com/icon </metadata>
<g><g transform="translate(0.000000,511.000000) scale(0.100000,-0.100000)"><path d="M4661.9,5007.7c-37.8-4-155.1-17.9-258.6-29.8c-861.2-97.5-1740.2-465.4-2456.2-1028.2c-179-141.2-648.4-610.6-789.6-789.6c-560.9-714-906.9-1535.4-1032.2-2456.2c-33.8-244.6-33.8-948.7,0-1193.3c125.3-920.8,469.4-1740.2,1032.2-2456.2c169.1-214.8,648.4-682.2,877.1-853.2c694.1-525,1485.7-847.2,2368.7-968.5c244.6-33.8,948.7-33.8,1193.3,0c920.8,125.3,1742.2,471.3,2456.2,1032.2c179,141.2,648.3,610.6,789.6,789.6c560.9,714,906.9,1535.4,1032.2,2456.2c33.8,244.6,33.8,948.7,0,1193.3c-121.3,883.1-443.5,1674.6-968.5,2368.7c-171.1,228.7-638.4,708-853.2,877.1c-702.1,548.9-1499.6,891-2386.6,1022.3C5473.3,4999.7,4801.1,5023.6,4661.9,5007.7z M6463.8,117.1l962.6-2406.5l-521.1-6c-286.4-2-527.1,2-535,10c-6,9.9-67.6,159.1-133.3,334.1c-65.6,175-157.1,413.7-202.9,533l-81.6,212.8h-962.6h-960.6l-31.8-83.5c-17.9-47.7-107.4-290.4-198.9-542.9l-165.1-457.4l-523.1-6c-415.7-4-519.1,0-511.1,19.9c6,13.9,419.6,1081.9,918.8,2372.7C4017.5,1388,4435.2,2464,4445.1,2489.8l17.9,43.8l519.1-4l519.1-6L6463.8,117.1z"/><path d="M4628.1,491l-318.2-871.1l336.1-6c185-2,483.3-2,660.3,0l324.2,6L5302.3,491c-181,477.3-334.1,869.1-342.1,869.1C4954.3,1360.2,4803.1,968.4,4628.1,491z"/></g></g>
</svg>